<svg class="svg-icon" style="width: 1em; height: 1em;vertical-align: middle;fill: currentColor;overflow: hidden;" viewBox="0 0 1024 1024" version="1.1" xmlns="http://www.w3.org/2000/svg"><path d="M127.703704 154.271605a28.148148 28.148148 0 0 1 0-56.296296h29.629629a28.148148 28.148148 0 0 1 0 56.296296z m342.716049 56.296296h-69.135802a28.148148 28.148148 0 0 1 0-56.296296h22.518518a28.148148 28.148148 0 1 0 0-56.296296H234.074074a28.148148 28.148148 0 1 0 0 56.296296h8.888889a28.148148 28.148148 0 0 1 0 56.296296H130.17284a28.148148 28.148148 0 0 0 0 56.197531h148.938271v61.333333h49.876543V266.666667h141.432099a28.148148 28.148148 0 1 0 0-56.197531z" fill="#6ADDD6" /><path d="M851.061728 940.641975H175.703704v-370.37037l337.679012-225.08642 337.679012 225.08642v370.37037z" fill="#C9FBF2" /><path d="M175.703704 833.481481h675.45679v107.160494H175.703704zM513.382716 345.185185L175.703704 570.271605v88.987654l337.679012-225.185185 337.679012 225.185185v-88.987654L513.382716 345.185185z" fill="#A9ECEB" /><path d="M428.938272 637.728395h168.888888v302.91358h-168.888888z" fill="#DC4E45" /><path d="M446.419753 655.209877h133.925926v267.950617H446.419753zM239.506173 639.209877h124.444444v138.271604h-124.444444z" fill="#FF6B5B" /><path d="M256.987654 656.691358h89.481482v103.308642h-89.481482z" fill="#FFFFFF" /><path d="M662.814815 639.209877h124.444444v138.271604h-124.444444z" fill="#FF6B5B" /><path d="M680.296296 656.691358h89.481482v103.308642h-89.481482z" fill="#FFFFFF" /><path d="M380.049383 890.567901h266.765432v50.074074H380.049383z" fill="#00C4B8" /><path d="M260.148148 345.382716h84.444445v138.962963h-84.444445z" fill="#C9FBF2" /><path d="M133.530864 632.098765a33.876543 33.876543 0 0 1-18.864197-62.123456L513.580247 304.395062l398.518518 265.777778a33.975309 33.975309 0 0 1-37.728395 56.493827L513.580247 385.975309 152.395062 626.666667a33.975309 33.975309 0 0 1-18.864198 5.432098zM364.54321 345.679012a16.098765 16.098765 0 0 0-13.530864-17.777777h-97.382716a16.098765 16.098765 0 0 0-13.530865 17.777777 16.098765 16.098765 0 0 0 13.530865 17.777778h97.382716a16.098765 16.098765 0 0 0 13.530864-17.777778z" fill="#00C4B8" /><path d="M562.271605 777.481481a19.753086 19.753086 0 1 1-19.753086-19.753086 19.753086 19.753086 0 0 1 19.753086 19.753086z" fill="#DC4E45" /></svg>